<svg id="文字标注" xmlns="http://www.w3.org/2000/svg" xmlns:xlink="http://www.w3.org/1999/xlink" viewBox="0 0 128 128"><defs><linearGradient id="未命名的渐变_114" x1="64" y1="43" x2="64" y2="113" gradientUnits="userSpaceOnUse"><stop offset="0" stop-color="#becfd3"/><stop offset="1" stop-color="#89a4af"/></linearGradient><linearGradient id="未命名的渐变_112" x1="64" y1="43" x2="64" y2="25" gradientUnits="userSpaceOnUse"><stop offset="0" stop-color="#455a64"/><stop offset="1" stop-color="#263238"/></linearGradient><linearGradient id="未命名的渐变_121" x1="64" y1="43" x2="64" y2="75" gradientTransform="translate(128 118) rotate(-180)" gradientUnits="userSpaceOnUse"><stop offset="0" stop-color="#b5c7c9"/><stop offset="1" stop-color="#89a4af"/></linearGradient><linearGradient id="未命名的渐变_58" x1="64" y1="11" x2="64" y2="43" gradientUnits="userSpaceOnUse"><stop offset="0" stop-color="#ffb171"/><stop offset="1" stop-color="#f47b51"/></linearGradient><linearGradient id="未命名的渐变_86" x1="89.8" y1="15.2" x2="86.13" y2="18.87" gradientUnits="userSpaceOnUse"><stop offset="0" stop-color="#ffa969"/><stop offset="1" stop-color="#f46e45"/></linearGradient><linearGradient id="未命名的渐变_112-2" x1="65" y1="113" x2="65" y2="86" xlink:href="#未命名的渐变_112"/><linearGradient id="未命名的渐变_58-2" y1="117" y2="93" xlink:href="#未命名的渐变_58"/></defs><rect x="12" y="43" width="104" height="70" rx="8" fill="url(#未命名的渐变_114)"/><path d="M33,25H95a4,4,0,0,1,4,4V43a0,0,0,0,1,0,0H29a0,0,0,0,1,0,0V29A4,4,0,0,1,33,25Z" fill="url(#未命名的渐变_112)"/><path d="M29,43H99a5,5,0,0,1,5,5V75a0,0,0,0,1,0,0H24a0,0,0,0,1,0,0V48A5,5,0,0,1,29,43Z" transform="translate(128 118) rotate(180)" fill="url(#未命名的渐变_121)"/><path d="M20,43h88a8,8,0,0,1,8,8v2a0,0,0,0,1,0,0H12a0,0,0,0,1,0,0V51A8,8,0,0,1,20,43Z" fill="#fff" opacity="0.15"/><path d="M85.6,11H35.8A1.81,1.81,0,0,0,34,12.8V43H94V19.4Z" fill="url(#未命名的渐变_58)"/><path d="M85.6,17.59a1.81,1.81,0,0,0,1.81,1.81H94L85.6,11Z" fill="url(#未命名的渐变_86)"/><circle cx="110" cy="57" r="3" fill="#f76363"/><circle cx="110" cy="67" r="3" fill="#29ef9a"/><rect x="42.5" y="19.13" width="44" height="2" fill="#fff" opacity="0.3"/><rect x="42.5" y="24.63" width="44" height="2" fill="#fff" opacity="0.3"/><rect x="42.5" y="30.63" width="44" height="2" fill="#fff" opacity="0.3"/><rect x="42.5" y="36.13" width="44" height="2" fill="#fff" opacity="0.3"/><path d="M28,86h74a3,3,0,0,1,3,3v23a1,1,0,0,1-1,1H26a1,1,0,0,1-1-1V89A3,3,0,0,1,28,86Z" fill="url(#未命名的渐变_112-2)"/><path d="M102.85,115.47,100.69,112l-1.24-2-1.56-2.5-1.24-2-1.87-3-1.24-2L92,98l-1.24-2L89,93.23A.5.5,0,0,0,88.6,93H39.4a.5.5,0,0,0-.42.23L37.26,96,36,98l-1.56,2.5-1.24,2-1.87,3-1.24,2L28.55,110l-1.24,2-2.16,3.47A1,1,0,0,0,26,117h76A1,1,0,0,0,102.85,115.47Z" fill="url(#未命名的渐变_58-2)"/><polygon points="85.5 97 42.5 97 41.5 99 86.5 99 85.5 97" fill="#f2f2f2" opacity="0.3"/><polygon points="39 103 89 103 87.99 101 40.01 101 39 103" fill="#f2f2f2" opacity="0.3"/><polygon points="36.5 107 91.5 107 90.49 105 37.51 105 36.5 107" fill="#f2f2f2" opacity="0.3"/><polygon points="34.5 112 93.5 112 92.5 110 35.5 110 34.5 112" fill="#f2f2f2" opacity="0.3"/></svg>